<svg xmlns="http://www.w3.org/2000/svg" viewBox="0 0 100 100"><title>Class Icon - Artificer</title><path d="M35,69.28H58.91c1.18-.94,2.05-4.16,1.8-7.81.54-8.88-7.55-14.33-10-15.54V33.53h1.79c1.21,0,1.43-2.17,0-2.42H41.36c-1.42.25-1.21,2.42,0,2.42h1.79v12.4c-2.43,1.21-10.52,6.66-10,15.54C32.92,65.12,33.79,68.34,35,69.28Z" style="fill:#00040c"/><path d="M81.73,76.49a9.75,9.75,0,0,0-2.43.3h0l-5.43-5.33-.11-4.34,0,0a30.39,30.39,0,0,0,3.5-9.28h0L85,54.12V49.73l-7.83-4.19a30.8,30.8,0,0,0-6-12.83l.05,0,5.16-5.17,4.21-.21L87.24,34,100,21.17,84.84,5.82,62.14,4c-.84-.08-2.47,2.25-1.42,3.41L70.29,17l-.39,4.38L64.72,26.5l0,0a30.76,30.76,0,0,0-11.57-5h0l-4-7.71H44.75l-4.06,7.71h0a30.8,30.8,0,0,0-12,5.3l0,0L26,24l-.18-1-.19-4,4-4L24,6A25.79,25.79,0,0,0,11.6,4.21L9.35,6.41,18,15l0,4.42L15,22.2l-4.42,0L2,13.79l-2,2A27.5,27.5,0,0,0,2.14,28.48l8.6,5.24,3.51-3.56h2.91l2.18.39,2.92,2.64h0A30.71,30.71,0,0,0,16.65,45.7L9,49.77v4.39l7.62,3.68a30.58,30.58,0,0,0,3.86,9.93h0l-.21,4.11L15.22,77a9.66,9.66,0,0,0-3.06-.49,9.77,9.77,0,1,0,9.76,9.76,9.66,9.66,0,0,0-.29-2.36l5.26-5.36,4.4-.12,0,0a30.55,30.55,0,0,0,9.5,3.66h0l4,7.58h4.39l4-7.58h0a30.94,30.94,0,0,0,10.4-4.21l0,0,3.73.18,5.21,5.19h0a9.76,9.76,0,1,0,9.29-6.75ZM16.13,90.23l-4,1.64-4-1.64-1.64-4,1.64-4,4-1.65,4,1.65,1.65,4ZM46.94,26.75a25,25,0,1,1-25,25A25,25,0,0,1,46.94,26.75ZM85.7,90.23l-4,1.64-4-1.64-1.65-4,1.65-4,4-1.65,4,1.65,1.65,4Z" style="fill:#00040c"/></svg>