<svg xmlns="http://www.w3.org/2000/svg" viewBox="0 0 100 100"><title>Race Icon - Triton</title><path d="M22.72,50.74c1.87,2,1.76,5.25,2.15,7.85-.07,2,1.22,3.68,1.12,5.64a4.35,4.35,0,0,0,1.38,3.9c.23.2.43.48.76.24s.22-.52.06-.8a15.3,15.3,0,0,1-1.7-5.35c-.36-2.32.69-4.8-.73-6.9-1.06-1.85-.16-4.15.14-6.12,1-3.8,0-7.4-1.9-10.81-1.3-3.38,1.49-6.66,1.51-10.06A7.82,7.82,0,0,0,25,24.25a2.4,2.4,0,0,1-.1-1.33,15.19,15.19,0,0,1,.55-2.38c.05-.2.17-.39.41-.35s.27.27.24.47a5.75,5.75,0,0,0,1,4.09,3.34,3.34,0,0,1,.18,2.49,7.68,7.68,0,0,0,1.09,5.63c2.34,3.78-2.62,8,.2,11.55,3.5,4-.79,10.28,2.1,14.23.37-.08.28-.45.22-.69A10.27,10.27,0,0,1,32,50.14a2,2,0,0,0,0-2.43c-.87-1.44-1.31-5.71.43-6.4.41.14.09.69,0,1-.42,1.35.32,2.5.82,3.68.06.21.16.44.44.41,3.31-6-2.76-12.17-1.69-18.49,1.21-5.73,2.59-11.33,1.55-17.21,3.93,5.29.23,12.41,1.8,18.33.77,2-.22,4.19.59,6.16,1.34,3.09.78,6.37,1.24,9.59.25,1-.4,2-.58,3-.06.36-.1.68.34.75,1.65.42.4-4.2,1.57-5.36,1.47-2.94-1.23-6.11-.24-9.25,0-.59.77-.64.6,0s1.48,6.69,2.29,4.66c3.8-6.11-3.84-11.36-3-17.51,1.08-7,2-14.46-.87-21,5.32,5.47,1.75,15.05,3.14,22,.48,2.93,3.3,4.66,3.87,7.6.5,1.94,1.53-1.81,1.59-2.38a13.92,13.92,0,0,0,.1-8.77c-.09-.36-.32-.93.12-1.05s.43.5.57.82a23.73,23.73,0,0,1,1.49,9.79C48,30,47.25,32,47,33.91c.22,1.82-.49,3.52-.72,5.28-.17.91.5,1.53,1,.49s1.9-2,2-3.24c-.55-2.41,0-4.84.72-7.14a17.32,17.32,0,0,1,1,5.94c.09.61-.45,1.25-.11,1.8,1.41,2.13,3.67,5.59,2.55.36-.39-4.26-1.89-8.54-1.44-12.78a28.79,28.79,0,0,1,1.63-6.78c.08-.2.17-.49.45-.4.53.84-.46,2.46-.46,3.5-.56,3,.46,6,1.45,8.83.19.63.7.59.76-.07.56-2.81,3.09-4.55,3.81-7.23C61,15.17,57.78,7.06,62.2.41c.21-.47,1-.44.55.18C59.18,7.65,61.66,15.48,62,22.9c-.72,5.29-6.58,10.32-3,15.79.82,1.72,2.38-4.06,2.24-4.72,0-.18-.12-.52.22-.51s.36.26.38.5c1,3.29-1.91,6.56,0,9.64,1,1.4-.21,3.67.88,4.89,1.71.45.31-2,.27-2.75.3-3.58-.18-7.38,1.34-10.81.65-1.86-.31-3.88.44-5.74,1.55-6-2.11-13.06,1.79-18.53,0,2.74-.83,5.43-.17,8.21.47,4.92,2.87,9.85,1.27,14.78-1.66,4-2.91,8.15-1.54,12.47a.36.36,0,0,0,.7.08c.57-1.34,1.41-2.74.77-4.24-.06-.22-.2-.55.06-.67,1.79.62,1.36,5,.46,6.45a2.44,2.44,0,0,0,.18,2.68,10.25,10.25,0,0,1,.9,7.57c0,.24-.11.56.19.65s.41-.23.48-.46c1.5-3.84-.58-7.86.55-11.78,2.28-3.76,2.57-4.85,1-9.09-1.38-3.55,2.41-6.22,1.47-9.81-.82-2.39,1.69-4.23,1.13-6.65,0-.24-.13-.57.18-.65.72-.28,1.19,3.44.94,3.94-1.8,4.2.93,8.11,1.31,12.25-.2,3.28-2.92,5.79-2.63,9.31,0,3.49,2.16,7.1.12,10.36-.61.87-.4,2-.3,3.07a14.81,14.81,0,0,1-1.79,8.6.5.5,0,0,0,.16.66.45.45,0,0,0,.6-.12c2.34-1.73,1-4.73,2.16-7,1.14-3.32.18-7.71,2.59-10.46a.81.81,0,0,1-.08.76c-1,2.39-.89,4.93-.7,7.42.3,3,1.95,7-.64,9.44-3.6,3,.29,6.86-5.75,8.88-6.7,3.68-3.21,14-9.37,18.07C57.26,97.29,52,101,48.06,99.62c-18.36-5.9-8.49-12.1-17.44-22-7.45-2.78-2.41-5.6-6.52-9.31-3.13-3.6.17-8.74-.46-13C23.72,53.71,22.85,52.33,22.72,50.74Zm15.6,17.75c-.78.2-4,0-2.91,1.37,1.8,2.6,5.88,4,8.66,2.12C46.29,70.55,39.37,68.41,38.32,68.49Zm23.24,0c-2,.06-3.79,1.18-5.54,2.06-1.84,1,.87,2,1.84,2.15,2.7.88,5.47-1.21,6.79-3C65.36,68.42,62.36,68.7,61.56,68.49ZM56.53,89c0-.38-.24-.49-.56-.58a26.49,26.49,0,0,1-3.27-.93c-.78-.3-1.63-.73-2.46,0a.38.38,0,0,1-.49,0c-.89-.72-1.78-.25-2.6.08-1,.4-2,.55-3,.87-.56,0-1,.7-.45,1.08.3.17.53,0,.74-.18a2.61,2.61,0,0,1,1.67-.51c3.2.2,6.8-.78,9.76.65C56.17,89.71,56.54,89.43,56.53,89ZM51.91,43.74A15.23,15.23,0,0,0,50,39.2c-.21,0-.29.19-.34.35a36.15,36.15,0,0,0-1.56,4c-.18.86.29,1.31,1.12,1.07C50.17,44.18,51.94,45.47,51.91,43.74ZM50,89.51h0c-4.7-.26-.15,2.32,1.64.82C52.89,89.37,50.6,89.48,50,89.51ZM43.66,45c-.32-2.16-.59-2.34-1.32-.22-.11.27-.18.53.06.75S43.62,45.42,43.66,45Zm12.69-.18c-.2.53.9,1,1.24.68s.13-.49,0-.75C57,42.88,56.62,42.71,56.35,44.84Z" style="fill:#00040c"/></svg>