<svg xmlns="http://www.w3.org/2000/svg" viewBox="0 0 100 100"><title>Race Icon - Water Genasi</title><path d="M68.21,37.34A38.14,38.14,0,0,0,74.6,25.13a4.07,4.07,0,0,1,.2.74c0,.51,0,1,.07,1.55a2.47,2.47,0,0,1-.65,1.91,6.38,6.38,0,0,0-1.45,4.87,4,4,0,0,0,.83,1.47c.1.17.3.27.58.51a2.85,2.85,0,0,0-1.91,2.09,2.09,2.09,0,0,0,.58,2.55c.57.51.56.59-.09.9a6.13,6.13,0,0,0-3.28,4.11,14.05,14.05,0,0,0-.54,7.3A17.89,17.89,0,0,0,69.68,55a3.64,3.64,0,0,1-1.91-1.4c-.48-.59-.87-1.25-1.36-2l-2.18,4.56c1.13.17,2.15.27,3.16.46,3.21.61,6.44,1.12,9.61,1.9a59.62,59.62,0,0,1,10.66,3.65A40.56,40.56,0,0,1,96.6,67.6a9.32,9.32,0,0,1,3.29,4.3,2.06,2.06,0,0,1-.09,1.57c-.39.55-1.12.36-1.7.13a3,3,0,0,1-1.78-1.72,10.72,10.72,0,0,0-4.56-5,53.83,53.83,0,0,0-9.91-4.55,5.15,5.15,0,0,0-3.06.07c-.51.11-1,.18-1.53.28a2.7,2.7,0,0,1-2.44-.92,6.05,6.05,0,0,0-2.12-1.29c-1.85-.52-3.75-.87-5.64-1.25C66,59,64.83,58.9,63.72,58.7a1.08,1.08,0,0,0-1.31.51C62,60,61.46,60.66,61,61.38c-.22.33-.22.69.15.83a8.59,8.59,0,0,0,4.82.68,3.44,3.44,0,0,0,.64-.23,3.66,3.66,0,0,1-.78-.36,4.73,4.73,0,0,1-.58-.68c.26-.1.56-.34.77-.28A47.39,47.39,0,0,1,71,63a21.85,21.85,0,0,1,3,1.92,2.36,2.36,0,0,0,.75.32A5.71,5.71,0,0,1,78,66.8a4.86,4.86,0,0,0,1,.69,4,4,0,0,1,2.1,4.26c-.17,1.49.22,1.82,1.68,1.48a1.15,1.15,0,0,0,.93-1A5.07,5.07,0,0,0,82.28,68c-.52-.62-1.22-1.09-1.8-1.66a.79.79,0,0,1-.25-.65.77.77,0,0,1,.55-.43,4.21,4.21,0,0,1,2.87.51,10.83,10.83,0,0,1,6.22,9.56c.06,3-1.59,5.13-4,6.69A28.22,28.22,0,0,1,74.6,86.21a72.75,72.75,0,0,0-9.71,2.37,40.27,40.27,0,0,1-9,1.33c-1.24.06-2.49,0-3.74,0a3.19,3.19,0,0,1-1.25-.39c-.19-.09-.41-.45-.36-.6a.88.88,0,0,1,.58-.5c1.56-.25,3.12-.46,4.68-.65,3.29-.39,6.63-.5,9.84-1.41a9.69,9.69,0,0,0,3.62-1.69c.4-.33.82-.66.75-1.26a1.52,1.52,0,0,0-1.14-1.23,5.46,5.46,0,0,0-3.8.08c-1.55.62-3.1,1.24-4.69,1.74a12.1,12.1,0,0,1-4.76.19,21.88,21.88,0,0,0-3,0,78.13,78.13,0,0,1-13.68-.23c-3.85-.51-7.66-1.29-11.48-2-1.13-.21-2.25-.46-3.35-.69-.38.83-1,1-2.09.73a12.31,12.31,0,0,1-4.4-2.16,21.43,21.43,0,0,1-5.07-5.12c-1.9-2.83-1.46-4.86.89-7.22a38.6,38.6,0,0,1,3.52-2.8l.75-.6,0-.24a3.9,3.9,0,0,0-1.1-.35,12.08,12.08,0,0,0-5.88,1.76A12.58,12.58,0,0,0,6.1,69.31a5,5,0,0,0,0,5.71,9.48,9.48,0,0,0,5.41,3.92,26.68,26.68,0,0,1,3.34,1.11,26.68,26.68,0,0,1,3.3,2c.36.24,1.09.33.84.92-.11.27-.82.46-1.22.4a58.14,58.14,0,0,1-6.18-1A19.62,19.62,0,0,1,2.69,77.6,7.4,7.4,0,0,1,0,72.21a6.67,6.67,0,0,1,2.18-4.82,24.19,24.19,0,0,1,7.49-4.93,57.51,57.51,0,0,1,5.47-2.23,49.86,49.86,0,0,1,6.11-1.59c2.88-.56,5.79-1,8.82-1.44l-2.76-5.62c-.82,1.35-1.61,2.67-3.21,3.22a6.43,6.43,0,0,0,.62-1.5A16.55,16.55,0,0,0,25,50.09a14.64,14.64,0,0,0-1.16-5.49,5.48,5.48,0,0,0-2.62-2.83c-.27-.14-.51-.3-.77-.45.06-.15.07-.23.12-.27,1.76-1.27,1-2.88.17-4.35a.68.68,0,0,0-.38-.31c-.76-.2-.56-.51-.11-.85a2.12,2.12,0,0,0,.83-1.85,7.52,7.52,0,0,0-1.73-4.75,2.13,2.13,0,0,1-.43-1.2A12.62,12.62,0,0,1,19.19,25a40.11,40.11,0,0,0,6.46,12.35,5.35,5.35,0,0,0,.07-.54,57.7,57.7,0,0,1,1.56-13.09A17.72,17.72,0,0,1,31.94,15a16.07,16.07,0,0,1,7.22-4,29.86,29.86,0,0,1,10.57-.77,24.44,24.44,0,0,1,6.61,1.35A15.47,15.47,0,0,1,63,16.24a16.81,16.81,0,0,1,2.76,5.12A44,44,0,0,1,68,35.17c0,.66,0,1.32.09,2C68.07,37.18,68.12,37.22,68.21,37.34ZM52.65,45.26a23.75,23.75,0,0,0,2.16,1.6,3.59,3.59,0,0,0,3.95,0,14.24,14.24,0,0,0,3.86-3.56c.4-.55.35-.67-.31-.83C58.66,41.6,55.72,43.21,52.65,45.26ZM30.79,42.71a11.62,11.62,0,0,0,2.76,3,6.44,6.44,0,0,0,2.86,1.59c2,.29,3.26-.81,4.47-2.12C38.58,43,33.69,41.24,30.79,42.71Zm-8.6,17.84.09.35a5,5,0,0,0,1.43.1c2.36-.49,4.71-1,7.06-1.59.13,0,.33-.21.32-.31a.63.63,0,0,0-.26-.44.93.93,0,0,0-.61-.11c-1.94.33-3.89.63-5.81,1.05A13,13,0,0,0,22.19,60.55Z" style="fill:#00040c"/></svg>