<svg xmlns="http://www.w3.org/2000/svg" viewBox="0 0 100 100"><title>Race Icon - Firbolg</title><path d="M31.33,76.9C25,78.65,28,74.38,25.93,74.34c-2.9.82-1.56-1.94-.57-3.15-3.35-.35-3.27-2.88-.75-4.75-5,.31,3.27-8.4-1.52-14.21-1.79-2.95-7.4-14.7-11-12.92C9.18,40.74,8.62,40.9,6,39,4,37.2,7.72,33.52,4.9,32.11c-1,.12-1.3-.69-1.67-1.36-2.3-3,1.7-9.17-3.23-9.92,2.13-2.22,5-4.89,8.49-3.69.87.22,1,.66.7,1.54.07,1.57,1.69,2.86,2.54,4.14,5.65,6.68-.55,7.48.61,11,1.21-4.68,8.79,4.15,11.27-1.3a4.11,4.11,0,0,0-1.54-.31c.32-1.68,2.46-1.95,2.61-3.7-3-.51-5.94-1-1.36-2.89.47-.2.64-.39.25-.76-.5-2,2.89-4.25,4.21-6A5.18,5.18,0,0,1,25.86,18c1.58-1.51,4.88.76,6.07-1.73.27-.52,0-.65-.48-.66-1,.13-5.18-.3-3.84-1.82,3.78-3.1,6.87,3.17,6.84-.09-2.34-3.39,3.1.74,4.13-1.44,1.19-1,2.94-.24,4-1.5.62-.51,1.16-.67,1.84-.05,2.08.73,3.54-1.92,5.36-2.44,1.88,5.22,3.8-7,5.59,1.8,1.69-3.81,3,.41,5.62.71,1,.24,2-1,2.86-.06,1.12,1.21,3,.45,4.13,1.65,1.5,1.61,3.07-.57,4.64.1-2.1,2.47,1.32,3.12,3,4.79,1.57,1,3.63-.56,5.11.73-4.37,1.58-.24,1.28.68,3.83,3,3.07-.29,3.25,3.85,4.92,2.24,2.52-6.06.11-3,3.17,1,.62,2,1.15,2.2,2.35a7.49,7.49,0,0,1-1.58.15C87.15,38,95.08,29.9,100,28.67c-.85,5-6,9.26-9.78,12.46-2.3,5-6.84,8.66-7.75,14.3-2.62,3.41,3.66,10.56-.54,11,5,5.13-2.71,3.46.07,6.12,1.09,1.39-.54,2.19-1.68,1.74-1.49.21.23,3-2.45,2.93-8.23-1.55,5.74,5.6-5.08,3,.88,3.26.44,2.78-1.34,4.83.12,3.55-2.92,1-4.4.13,0,1.51,1.58,3.34-1.49,2.79-.47-.27-1-.88-1.3-.07-2.08,5.67-4.53.69-4.92,3.06-.24,1.64-2.23-.76-2.3,1.16-.65,1.87-2.28-1.52-2.95.62-1.36,1.88-2.09-1.92-3.58-.2a.69.69,0,0,1-1.06-.27c-.4-1.56-2.31,0-2.47-1.46-.87-1.51-3.85,1.55-4.71-2.93-.47-1.34-4.45,2-3.19-1.51.31-.37.92-.75.45-1.3-1.27.63-4.31,3.38-4.5.21-.59-2.7-3.18-.14-1.44-5.17-3.59,2.09-5.39,0-2-2.87ZM42.78,41.06c-.3,2.21,1.58,2.67,3.27,2.06,4.47,1.84,9.3,2.89,13.67.21,1.13-.92,2.12,1,3-.12,2.24-1.76.12-5.79-2.48-5.42.16.91,3.87,4.33,1.21,3.87-.45-.42-.72-.28-1.22,0-5.22,4.26-10.8.62-15.92.19-1-1.73,1.57-2.49,1.79-4C44.62,37.61,42.6,39.51,42.78,41.06ZM38,35.34c2.86.17,8.28-4,3.32-4.81C38.24,29.85,33,34.17,38,35.34Zm30.35.13c5.57-1.92-2-6.79-4.84-4.41C61.57,33.13,66.41,35.18,68.33,35.47Zm-62-15.56A1.15,1.15,0,0,0,4,19.8,1.15,1.15,0,1,0,6.28,19.91Z" style="fill:#00040c"/></svg>