<svg xmlns="http://www.w3.org/2000/svg" viewBox="0 0 100 100"><title>Race Icon - Earth Genasi</title><path d="M26.38,45c-.08.06-.16.1-.24.17-.65.56-.66.56-1.24-.1-1.53-1.75-3.06-3.5-4.61-5.24-.46-.52-.95-1-1.45-1.54a.84.84,0,0,1-.2-1.05,10.86,10.86,0,0,1,.93-1.39c.71-.92,1.42-1.82,2.16-2.71a3.65,3.65,0,0,1,.81-.7,10.62,10.62,0,0,0,1.61-1.05,5.44,5.44,0,0,0,1.06-1.64,3.09,3.09,0,0,1,1.39-1.42A8.17,8.17,0,0,0,27.93,27c.14-.15.23-.39.4-.45,1.27-.49,1.63-1.73,2.29-2.73s1.38-2.13,2.14-3.15c.61-.8,1.33-1.52,2-2.28.3-.35.6-.62,1.05-.22.06,0,.16,0,.22.1.74.49,1.27.22,1.91-.33a14.77,14.77,0,0,0,3.27-3.85,7.55,7.55,0,0,1,2-2.15,18.92,18.92,0,0,0,4.14-4.69C48.2,6.09,49.31,5.1,50.23,4a22,22,0,0,0,1.53-2.15A14.45,14.45,0,0,0,52.55.32a.47.47,0,0,1,.69-.26c1.46.6,2.93,1.17,4.39,1.76,1.8.72,3.64,1.39,5.4,2.19,1.4.64,2.71,1.46,4.06,2.2a1.3,1.3,0,0,1,.72,1.29c0,2.31,0,4.63,0,7a3.87,3.87,0,0,0,.47,1.89c.93,1.79,1.73,3.66,2.57,5.5,1,2.17,2,4.35,3,6.52.58,1.27,1.22,2.51,1.77,3.79a23.36,23.36,0,0,0,2.51,4c1.11,1.61,2.13,3.28,3.21,4.92a.87.87,0,0,1-.12,1.19c-1.2,1.49-2.38,3-3.55,4.53a8.25,8.25,0,0,0-.71,1.13,1.23,1.23,0,0,0-.08,1.27c1.16,2.2,1.53,4.64,2.14,7,.3,1.15.7,2.27,1.09,3.51l-.6.41c-.57.39-1.12.8-1.71,1.14a2,2,0,0,1-1,.26c-.35,0-.5.1-.55.41a26.47,26.47,0,0,0-.48,3.61,4.65,4.65,0,0,0,.84,1.89c.7,1.25,1.45,2.48,2.14,3.73a.65.65,0,0,1-.13.59C77.43,73,76.23,74.18,75,75.39s-2.2,2.15-3.24,3.28a1.24,1.24,0,0,0-.09,1c.25.81.59,1.59.89,2.38.42,1.12.15,1.62-.94,2.08-.66.28-1.25.72-1.89,1a1.41,1.41,0,0,1-.74.19,3,3,0,0,1-2.18-1,.68.68,0,0,0-.58-.17c-.9.24-1.78.53-2.67.83a.83.83,0,0,0-.68.94.74.74,0,0,1-.49.8c-.87.46-1,.87-.63,1.79S62.64,90,63,90.79a4.24,4.24,0,0,1,.26,1.51c0,.16-.23.37-.4.48-1.2.76-2.42,1.48-3.6,2.26a3.21,3.21,0,0,0-.94.93,8.16,8.16,0,0,1-4.81,3.17,17.47,17.47,0,0,0-2,.77.66.66,0,0,1-.93-.28c-1.94-2.58-3.91-5.14-5.8-7.76-1.6-2.21-3.11-4.49-4.66-6.74a101.67,101.67,0,0,0-8.2-10.75c-1-1-1.71-2.29-2.6-3.42s-1.91-2.36-2.9-3.51a.59.59,0,0,1,0-.93,6.06,6.06,0,0,0,.81-1.34.83.83,0,0,0-.13-.73c-.55-.65-1.18-1.21-1.73-1.86A1.47,1.47,0,0,1,25,61.7a6.32,6.32,0,0,1,1.33-3.84l.07-.1c.83-1.38.8-1.5-.24-2.73s-2-2.42-2.95-3.62a.55.55,0,0,1,0-.8,9.54,9.54,0,0,1,2.93-3.1,1.2,1.2,0,0,0,.49-.79,13.43,13.43,0,0,0,0-1.68Zm8.09,1.27L33.9,46a1.09,1.09,0,0,0-1.25-.09,1.12,1.12,0,0,0-.36,1.21c.27,1.48.49,3,.78,4.43s.62,3,1,4.51c.08.33.51.56.78.84l.64-.7.13-.06c.28.75.55,1.5.84,2.25a1.27,1.27,0,0,0,.24.33L37.83,60c.67.83,1.31,1.69,2,2.48a3.26,3.26,0,0,1,.48,3c-.07-.33-.15-.56-.17-.78a2.49,2.49,0,0,0-1.29-1.8c-.62-.44-.94.27-1.42.37-.1,0-.2.45-.18.67.19,1.67.52,3.34.59,5a4.1,4.1,0,0,0,2,3.28A35.55,35.55,0,0,0,48,76.44a11.77,11.77,0,0,0,7.23.32,17.38,17.38,0,0,0,2-.77,30.34,30.34,0,0,0,7.33-3.84,4,4,0,0,0,1.74-3.1c.08-1.46.27-2.92.47-4.37.17-1.13.22-1.14-.77-1.68a.82.82,0,0,0-.7,0,2.38,2.38,0,0,0-1.33,2,2.69,2.69,0,0,1-.15.5,2.92,2.92,0,0,1,.64-3A5.22,5.22,0,0,0,65,62l2.72-3.39a.88.88,0,0,0,.1-.22l.8-2c.33.23.69.64.84.57a1.85,1.85,0,0,0,.79-.82,3.3,3.3,0,0,0,.31-1q.73-3.88,1.45-7.78c0-.14,0-.28,0-.42a.9.9,0,0,0-1.27-1c-.34.13-.66.32-1.15.56,0-1.58.06-3,0-4.41a27.69,27.69,0,0,0-.54-4.83,25,25,0,0,0-3.57-7.81A11.22,11.22,0,0,0,60.83,25a21.09,21.09,0,0,0-5.29-1.76,19.35,19.35,0,0,0-7.91.26,15.4,15.4,0,0,0-6.58,3.14,20.9,20.9,0,0,0-1.87,2.12c.58.32,1,.57,1.39.76a1.55,1.55,0,0,1,1,1.64,1.18,1.18,0,0,0,.61,1.23,1.88,1.88,0,0,1,.92,2,2.46,2.46,0,0,0,.67,1.83c.43.49.82,1,1.22,1.55l-.11.18a8.36,8.36,0,0,1-.86-.39c-.26-.16-.45-.5-.71-.55-1-.18-1.05-.88-1.07-1.63a5.94,5.94,0,0,0-.87-2.81c-.21-.35-.33-.75-.54-1.09a1,1,0,0,0-.54-.45c-.62-.1-1.25-.09-1.88-.15a.63.63,0,0,0-.7.42c-.34.72-.77,1.39-1,2.12a24.38,24.38,0,0,0-1.58,4.71C34.7,40.78,34.66,43.48,34.47,46.26Z" style="fill:#00040c"/><path d="M53.44,48.91c.21.34.36.62.55.87a1.91,1.91,0,0,0,1.78.93c.63,0,1.27.17,2,.07a4.84,4.84,0,0,0,1.7-.67,32.81,32.81,0,0,1,3.64-1.62c1.23-.48,2.5-.83,3.73-1.3a7.4,7.4,0,0,0,1.39-.85c.23-.14.45-.3.72-.5a9.06,9.06,0,0,1,.19,1.77c0,.28-.37.61-.66.77-.56.3-.93.61-.67,1.32.13.34-.11.54-.42.46-1.35-.35-2.16.39-3,1.27a6.5,6.5,0,0,1-3.28,1.63,3.31,3.31,0,0,1-2.94-.79c-.11-.09-.23-.25-.33-.24-1.39.15-2.4-.74-3.55-1.26a1.41,1.41,0,0,1-.93-1.62A1.21,1.21,0,0,1,53.44,48.91Z" style="fill:#00040c"/><path d="M35.39,45.76a1.91,1.91,0,0,1,.42.23c1.33,1.33,3.1,1.67,4.79,2.22a16.62,16.62,0,0,1,4.67,2.1,3.63,3.63,0,0,0,2.06.53c1.38,0,2.85-.05,3.4-1.77,0,0,.09-.06.14-.09a1.3,1.3,0,0,1-.5,1.64c-.56.29-1.11.59-1.67.87a2.35,2.35,0,0,1-.89.37,5.35,5.35,0,0,0-2.54.92,3.79,3.79,0,0,1-3.46-.24,7.37,7.37,0,0,1-2.91-2.22.93.93,0,0,0-.58-.27,3.92,3.92,0,0,0-.9.05c-.86.1-1-.05-.81-.87.09-.36,0-.53-.3-.66-.15-.07-.27-.18-.42-.24A1,1,0,0,1,35.27,47,7.78,7.78,0,0,0,35.39,45.76Z" style="fill:#00040c"/></svg>