<svg xmlns="http://www.w3.org/2000/svg" viewBox="0 0 100 100"><title>Race Icon - Forest Gnome</title><path d="M80.71,27.22a20.44,20.44,0,0,1,1.11,2.37c.55,1.71,1.07,3.45,1.47,5.2a25.33,25.33,0,0,0,2.57,7.29A5.24,5.24,0,0,1,86.45,45a9.94,9.94,0,0,0,.09,1.89c0,.23.34.42.53.63.21-.2.6-.39.62-.61.14-1.55.16-3.12.3-4.68a22.11,22.11,0,0,1,.47-2.8c.05-.22.36-.38.54-.56.15.21.39.41.44.65a23.82,23.82,0,0,1-.3,10.69c-.35,1.39-.55,2.82-.83,4.28a2.77,2.77,0,0,0,2.06-.85A9.29,9.29,0,0,1,94.92,51a14.86,14.86,0,0,1,5.08-.17,9.54,9.54,0,0,0-1.08,1.16c-.68,1-1.26,2.12-2,3.13a7.22,7.22,0,0,1-4.38,3.08,6.65,6.65,0,0,1-4.38-.65c-.53-.25-.8-.25-.93.37-.09.42-.23.83-.37,1.34,2.25-.17,3.85.54,4.24,2.86a3.38,3.38,0,0,1-1.84,3.28C88,66,86.53,65.52,85.11,64c-.16.31-.28.59-.42.86a44.08,44.08,0,0,1-4.4,6.85,34.29,34.29,0,0,1-9.66,8.25,67.84,67.84,0,0,1-9.41,4.33A39.48,39.48,0,0,0,57.27,86a8.14,8.14,0,0,0-3.67,3.82C53,91,52.54,92.2,52.05,93.43a1.17,1.17,0,0,1-.92.82c-.19,0-.38.12-.57.15-2.11.34-3.13-.39-3.57-2.52a9.47,9.47,0,0,0-2-3.83,11.66,11.66,0,0,0-5.47-3.51,67.56,67.56,0,0,1-9.92-4.49,29.06,29.06,0,0,1-6.22-4.51,42.88,42.88,0,0,1-3.89-4.09,31.53,31.53,0,0,1-4.33-7c-.29-.7-.42-.7-.92-.15A3.15,3.15,0,0,1,8.75,62a3,3,0,0,1,2.15-2.88,14.79,14.79,0,0,1,2.1-.29L12.49,57c-.67.23-1.23.44-1.81.61a6.24,6.24,0,0,1-6.92-2,38.85,38.85,0,0,1-2.3-3.44A17.34,17.34,0,0,0,.18,50.81,1.7,1.7,0,0,1,0,50.55c.08-.06.13-.13.18-.14,3.15-.32,6.12,0,8.62,2.26a18,18,0,0,0,2.37,1.57c.11.08.28.06.5.1-.22-1.3-.33-2.56-.65-3.77a24,24,0,0,1-.42-11.2,2.79,2.79,0,0,1,.44-.73c.21.19.56.35.61.58a19,19,0,0,1,.41,2.69c.1,1.48.11,3,.16,4.43a.94.94,0,0,0,.14.5c.15.18.38.43.57.43a.78.78,0,0,0,.53-.46,2.41,2.41,0,0,0,.15-1.09,7.52,7.52,0,0,1,1-4.77A21.85,21.85,0,0,0,17,33.78a24.49,24.49,0,0,1,2.13-6.13,4.05,4.05,0,0,0,.23-.59c-1.47-.24-2.57-.83-2.68-2.42a2.17,2.17,0,0,1,1.28-2.18c1.35-.71,2.37-.1,3.26,1a12.93,12.93,0,0,0,1.9-3.59c.57-1.8,1.4-3.51,1.92-5.32a15.33,15.33,0,0,0,.05-8,4.1,4.1,0,0,1-.15-1,5.65,5.65,0,0,1,2,2.05c1.76,2.75,1.36,5.46-.14,8.15-.49.88-1.33,1.57-1.41,2.67a4.35,4.35,0,0,0,0,.9C27.65,16.18,31,15.34,34.49,15a5.52,5.52,0,0,1,3.17.54,3.5,3.5,0,0,1-.54.37A2.1,2.1,0,0,0,36,17.19a8,8,0,0,1-8.49,4.94c-.78-.07-1.57-.14-2.34-.27-.45-.08-.64,0-.67.5a5.09,5.09,0,0,1-.22.95,2.56,2.56,0,0,1,2.42,1.16A3.49,3.49,0,0,1,27,26.22,1.91,1.91,0,0,1,25.48,28,11.1,11.1,0,0,1,23,27.84l-.91,2.67A3.18,3.18,0,0,1,24.37,32a3.73,3.73,0,0,1,.38,1.68,2.66,2.66,0,0,1-2,2.41c-1.26.41-2.19,0-3.52-1.62-.1.41-.18.72-.25,1a52.31,52.31,0,0,0-1.36,14.16,35.91,35.91,0,0,0,4.73,17,28.33,28.33,0,0,0,6.05,7,28,28,0,0,1-2-6.87,18.51,18.51,0,0,1,.41-7.11l.17,0c.1.24.21.47.31.71a21.45,21.45,0,0,0,1.19,2.73A11.37,11.37,0,0,0,30,64.66,5.19,5.19,0,0,1,31.39,70c-.24.74-.51,1.47-.8,2.31,1.51-.29,2.81,0,3.6,1.34s.31,2.59-.52,3.75c.54.8,4.79,2.83,8,3.8a5.07,5.07,0,0,0,.09-.54,14.88,14.88,0,0,0,.07-1.76,1.78,1.78,0,0,0-.33-1c-1.9-2.26-3.83-4.5-5.76-6.73-.8-.92-1.61-1.83-2.45-2.71a.74.74,0,0,1-.07-1q2.43-3.93,4.84-7.88a2.85,2.85,0,0,0,.29-.91c.11-.64-.14-.91-.82-.89a1.91,1.91,0,0,1-.88-.33c-.58-.34-1.15-.71-1.7-1.09s-1-.77-.84-1.59a.76.76,0,0,0-.68-1A1.81,1.81,0,0,1,32,52.28c-.91-3.14-1.86-6.26-2.76-9.4a4.7,4.7,0,0,1,.28-3.17c1.39,2.7,2.59,5.48,4.07,8.1l.31-.08a5.6,5.6,0,0,0-.21-1.32,2.35,2.35,0,0,1,0-1.84c.95-2.33,1.86-4.67,2.84-7A6.44,6.44,0,0,1,39.08,35a8.08,8.08,0,0,1,4.5-1.13,3.89,3.89,0,0,0,.47-.09,2.41,2.41,0,0,1-.22-.42c-.31-.83-.66-1.65-.89-2.5-.15-.54-.3-.65-.78-.33a12,12,0,0,1-1.32.72.87.87,0,0,1-1.18-.31c-.31-.68-.17-1.19.4-1.41s1.32-.4,1.36-1.26c0-.13,0-.34-.09-.38a2.54,2.54,0,0,1-1.21-2,1.21,1.21,0,0,0-1.27-1A5.23,5.23,0,0,1,37,24.34a1.25,1.25,0,0,1-.46-2,4.86,4.86,0,0,0,.6-1.36,2.83,2.83,0,0,1,1.54-1.92,1.65,1.65,0,0,0,1.09-1.44c.09-1,.72-1.28,1.59-.79.09-.12.16-.25.26-.37a.66.66,0,0,1,1.16.06.46.46,0,0,1,.1.24c-.06,1.2,1,1.7,1.56,2.52.1.15.39.17.57.28,1.35.82,3,.86,4.31,1.92a17.7,17.7,0,0,0,2.2,1.4c.09-.56.14-1,.24-1.49A11.27,11.27,0,0,1,54,16,5.33,5.33,0,0,1,56.89,14a4.07,4.07,0,0,1,3.75,1.23,4.82,4.82,0,0,1,1.41,5.35,4.93,4.93,0,0,1-1.4,2.2,4.58,4.58,0,0,1-.19-.46,1.65,1.65,0,0,0-1.58-1.23c-.75,0-1.08.5-1.31,1.08A8.33,8.33,0,0,0,57,26c.14,1.76.31,3.51.46,5.27a2.69,2.69,0,0,1-.67,2.18.61.61,0,0,0-.11.23s0,.09,0,.24h1a7.78,7.78,0,0,1,4.73,2.26,4.83,4.83,0,0,1,1.32,2c.87,2.27,1.82,4.52,2.65,6.8a4,4,0,0,1-.1,1.63,4.31,4.31,0,0,0-.08,1.2c1.1-1.1,1.5-2.56,2.2-3.86s1.36-2.72,2-4.08h.22A5.7,5.7,0,0,1,71,41.31a12.28,12.28,0,0,1-.37,2.7c-.85,2.86-1.78,5.69-2.66,8.54a2,2,0,0,1-1.52,1.36c-.2.05-.49.34-.47.47.27,1.7-1,2.23-2.14,2.87a6.93,6.93,0,0,1-1.74.62c-.34.08-.54.21-.47.55a3.54,3.54,0,0,0,.32,1.23c1.58,2.68,3.2,5.33,4.82,8a.69.69,0,0,1-.15,1c-1.08,1.16-2.17,2.3-3.21,3.5C61.67,74.05,60,76,58.34,78a1.3,1.3,0,0,0-.3.69c0,.82,0,1.65,0,2.61a36.7,36.7,0,0,0,8.27-3.67,3,3,0,0,1-.69-3.81,3,3,0,0,1,3.6-1.41c-.24-.76-.43-1.46-.68-2.14a4.76,4.76,0,0,1,.75-4.8c.5-.65,1.23-1.13,1.69-1.8A22.41,22.41,0,0,0,72.47,61c.18-.35.26-.76.47-1.14a15.1,15.1,0,0,1,.52,7.09,24.6,24.6,0,0,1-2,6.85l.14.1c.63-.59,1.32-1.13,1.9-1.77a33.31,33.31,0,0,0,6-9.12A36.86,36.86,0,0,0,82,53.48a50.44,50.44,0,0,0-1-18.12c-.05-.2-.13-.4-.14-.45-.39.31-.76.65-1.16.94a2.57,2.57,0,0,1-3.06.08,2.62,2.62,0,0,1-1.31-2.72,2.54,2.54,0,0,1,2-2.27c.7-.21.67-.49.45-1s-.48-1.35-.73-2.09c-1,.39-2,.77-3,0a2.81,2.81,0,0,1-.86-1.31A2.52,2.52,0,0,1,73.31,25a2.49,2.49,0,0,1,1-1.15,5,5,0,0,1,1.48-.39s0-.08,0-.12c-.17-1.42-.16-1.39-1.55-1.19-2.7.37-5.31.25-7.61-1.51a7.8,7.8,0,0,1-2.35-3.08c-.35-.78-.68-1.5-1.64-1.7v-.2a4.1,4.1,0,0,1,.86-.38,11.9,11.9,0,0,1,5.68.48,7.62,7.62,0,0,1,3.2,1.41L74.34,19c.13.12.28.23.54.45a4.31,4.31,0,0,0-.73-2.49,8.58,8.58,0,0,1-1.91-6.4,7.88,7.88,0,0,1,3-4.88l.18.07a4.51,4.51,0,0,1-.07.53,16.23,16.23,0,0,0-.14,8.47c.38,1.42,1,2.77,1.51,4.15.32.88.59,1.78,1,2.64.25.59.64,1.13.95,1.7.21.39.37.38.66,0a2.36,2.36,0,0,1,3.06-.53,2.27,2.27,0,0,1,1.1,2.57,2.48,2.48,0,0,1-2,1.83ZM43.31,59.94H56.59c-1.22-.87-2.57-.44-3.9-.68.17-.27.27-.45.4-.62.54-.71,1-1.44,1.64-2.1a1.62,1.62,0,0,0,.18-2c-.47-1-.95-1.9-1.45-2.83a.66.66,0,0,0-.93-.35c.54,1.14,1,2.24,1.57,3.33a1.45,1.45,0,0,1,0,1.54c-.58.92-1.12,1.86-1.73,2.76a1,1,0,0,1-.72.32c-1.13,0-2.27,0-3.4,0a1.08,1.08,0,0,1-1.09-.65c-.41-.79-.86-1.55-1.29-2.33A1.43,1.43,0,0,1,45.76,55c.53-1.17,1-2.37,1.51-3.56l-.18-.16c-.19.12-.46.2-.55.37-.58,1.1-1.13,2.2-1.66,3.32a1.2,1.2,0,0,0,.19,1.4c.39.46.75,1,1.11,1.44l1,1.43C45.83,59.49,44.5,58.94,43.31,59.94Zm4-13.24c-.17.52-.12,1-.89,1.11-2.09.28-4.17.65-6.25,1-1.08.18-2.15.39-3.23.59a14.22,14.22,0,0,0,2.05.5,7.43,7.43,0,0,0,4.75-.44c1.27-.6,2.51-1.65,4.24-1Zm15.77,3v-.2l-1.5-.25L54.26,48c-1.36-.24-1.36-.24-1.67-1.26L52,48.23a7.84,7.84,0,0,1,1.66.17c1.21.43,2.37,1,3.56,1.46a3.1,3.1,0,0,0,1.24.37C60,50.1,61.53,49.87,63.08,49.68Z" style="fill:#00040c"/></svg>