<svg xmlns="http://www.w3.org/2000/svg" viewBox="0 0 100 100"><title>Race Icon - Air Genasi</title><path d="M30,42.12l-.45.3c-.46.3-1,.34-1.23-.15a1,1,0,0,1,.33-1.38,1.78,1.78,0,0,1,2.3-.08,2.56,2.56,0,0,1,.31,3,3.63,3.63,0,0,1-4.78.82A2.38,2.38,0,0,1,26,41.53a13.39,13.39,0,0,1,2.15-2.76,13.83,13.83,0,0,1,6.13-3.32,6.77,6.77,0,0,1,5,.93c.67.35,1.33.71,2,1,1.9.91,3.74.38,5.54-.31a13.6,13.6,0,0,0,4.61-3c1.78-1.73,4.43-2,6-.39,2.53,2.53,1.85,6.52-1.16,7.56a3.44,3.44,0,0,1-3.16-.16,2.1,2.1,0,0,1-.48-2.92.93.93,0,0,1,1.6,0,.61.61,0,0,1-.07.14l-.76,1a4,4,0,0,0,1.25.63,2.39,2.39,0,0,0,2.45-1.78,2.61,2.61,0,0,0-1.63-2.88c-1.57-.53-2.56-.08-3.72,1.59C50,39.4,51.23,42.53,53.11,44a15.32,15.32,0,0,0,8.5,2.72,16.14,16.14,0,0,0,7.84-1,16.86,16.86,0,0,0,6.86-5.35A18.86,18.86,0,0,0,80,29.35a7.24,7.24,0,0,0-2.18-6,6,6,0,0,0-4.31-1.55,8.44,8.44,0,0,0-7.81,4.94,4.05,4.05,0,0,0,.49,4.87,4.27,4.27,0,0,0,5.11.27,2.27,2.27,0,0,0,.26-.28,2,2,0,0,0,0-2.28,2.18,2.18,0,0,0-2.27.29,1.38,1.38,0,0,1-.62.34,2.4,2.4,0,0,1,.2-.72,3.17,3.17,0,0,1,3-1.27,2.74,2.74,0,0,1,1.88,3.11,5,5,0,0,1-2.86,3.58c-2.34,1.3-6.06.75-8.31-1.13a6.87,6.87,0,0,1-2-7.6,9.22,9.22,0,0,1,2.12-2.85,18.13,18.13,0,0,1,11.86-5.52,9.58,9.58,0,0,1,8.91,4.2c2.64,3.67,3,7.73,2,12a22.4,22.4,0,0,1-4.31,9.36A17.29,17.29,0,0,1,72.51,49c-4.69,1.42-9.54,1.38-14.35,1.75a36.1,36.1,0,0,0-9.41,1.49,8.19,8.19,0,0,0-5.67,6.41,5.11,5.11,0,0,0,2.9,6,2.84,2.84,0,0,1,.39.25A2.54,2.54,0,0,1,43,64.48,6.82,6.82,0,0,1,42.12,63c-.62-1.21-1.9-1.59-2.76-.79-.64.6-.59,1.44.23,2.34,0-.24-.07-.37-.08-.5a1.19,1.19,0,0,1,.8-1.29c.6-.2,1,.22,1.17.68.35.78.61,1.6,1,2.39,1,2.29,1.92,2.91,4.42,2.76a9.49,9.49,0,0,0,6.61-2.8,6.54,6.54,0,0,0,1-6.45C53.77,58,51.91,57.41,50,57.9a3.25,3.25,0,0,0-2.24,3.57,1.45,1.45,0,0,0,1.43,1.23,3.57,3.57,0,0,0,1.61-.26c.14,0,.09-.6.14-1,.67-.18.76.39.86.8a1.52,1.52,0,0,1-1,1.79c-1.63.68-3.06.45-3.79-.59a4.22,4.22,0,0,1-.75-3.12c.52-3.35,2.44-5.41,6.15-6a8.08,8.08,0,0,1,3.63.22,6.21,6.21,0,0,1,4.1,4.57c1,3.08-.06,5.75-1.94,8.11-3.18,4-7.58,4.9-12.41,4.64a15.26,15.26,0,0,1-6.54-1.69c-1.26-.68-2.45-1.48-3.73-2.11a12.61,12.61,0,0,0-10.68-.64,5.47,5.47,0,0,0-2.38,8.11,3,3,0,0,0,3.28,1.11.56.56,0,0,0,.32-.35l-.41.07A2.16,2.16,0,0,1,23,75a4.33,4.33,0,0,1,.27-3.43c.83-1.55,2.33-1.86,3.86-1.9A8.28,8.28,0,0,1,33.82,73a17.29,17.29,0,0,0,7.62,5.39,11.36,11.36,0,0,0,9.11-.61,26,26,0,0,0,8.31-7.17c2.48-3,4.39-6.44,6.58-9.67a23.34,23.34,0,0,1,6.72-6.56,21.82,21.82,0,0,1,5.89-2.66,17.7,17.7,0,0,1,6.68-.58,21,21,0,0,1,7.6,2,13,13,0,0,1,6.91,8.36,13.55,13.55,0,0,1,0,9,10.5,10.5,0,0,1-5.91,6,10,10,0,0,1-5.27.83c-2.77-.4-5.31-1.38-6.62-4.09a5.44,5.44,0,0,1,.72-5.76,4.79,4.79,0,0,1,3.41-2.12c1.88-.23,2.91.77,2.76,2.69h-.13c-.66-1.83-2.61-1.55-3.9-.57a3,3,0,0,0-.31,4.9,4.26,4.26,0,0,0,4,.76c2.32-.66,2.92-2.55,3.17-4.54a8.17,8.17,0,0,0-2.41-7.3,11.38,11.38,0,0,0-3.1-1.93A13.64,13.64,0,0,0,78.46,58a9.14,9.14,0,0,0-7.76,5.48c-2.24,4.62-4.35,9.31-7.45,13.45a28.85,28.85,0,0,1-8,7.7c-3.45,2.08-7.11,3.51-11.25,3.23a8,8,0,0,1-6.39-3.53c-.12-.18-.26-.36-.46-.63-.35.54-.64,1-.95,1.43a11.8,11.8,0,0,1-4.94,4c-1.78.79-3.55,1.63-5.33,2.44a4.51,4.51,0,0,1-3.88,0c-2.25-1-4.57-1.93-6.74-3.12A10.71,10.71,0,0,1,10,81.19a40.06,40.06,0,0,0-3.1-8.41C6,70.91,5,69.05,4.07,67.14a4.18,4.18,0,0,1-.36.4c-.27.25-.66.74-.81.68a1.86,1.86,0,0,1-1-.89A22.14,22.14,0,0,1,1,63.62c-.37-2.69-.62-5.4-.88-8.1C0,54.48,0,53.44,0,52.4a2.36,2.36,0,0,1,.31-1,5.34,5.34,0,0,1,1.57.45c.24.11.37.46.69.89.05-.44.09-.65.1-.87.09-3,.2-6.11.27-9.16A23.29,23.29,0,0,1,4.82,35c.91-2.44,1.93-4.85,3.05-7.19A15.79,15.79,0,0,1,12.25,22a18.6,18.6,0,0,1,6.19-2.91,15.81,15.81,0,0,1,7.26-.74,30.86,30.86,0,0,1,7.29,2,30.64,30.64,0,0,0,9.19,2.45,13.13,13.13,0,0,0,7.33-1c2.46-1.24,4.17-3.12,4.17-6,0-1.76-.46-3.53-2.4-4.18-1.73-.59-4.29-.32-4.94,1.95a2.07,2.07,0,0,0,.49,2.1c.44.48,1,.29,1.46.1a.81.81,0,0,0,.49-1c-.05-.28-.11-.55-.17-.9.71.18.81.7.87,1.21a1.71,1.71,0,0,1-.79,1.75,3,3,0,0,1-4.45-2.15,5.42,5.42,0,0,1,3.58-6.06,6.67,6.67,0,0,1,6,.34A8.52,8.52,0,0,1,57.45,14a9.44,9.44,0,0,1,.27,4.72,11.25,11.25,0,0,1-3.31,5.39,18.66,18.66,0,0,1-9.9,5.17c-2.46.44-5,.6-7.46.8-3,.23-6,.59-8.56,2.19-3.37,2.08-5.85,4.85-5.82,9.09a5.25,5.25,0,0,0,2.8,4.91,5,5,0,0,0,5.2-.29,4,4,0,0,0,1.95-3.68c0-1.93-1.21-2.89-3.11-2.5a2.65,2.65,0,0,0-2.16,1.35,1.55,1.55,0,0,0,0,1.37,1.92,1.92,0,0,0,1.4.46C29.62,43,29.83,42.71,30,42.12ZM16.78,61.37c-.82-1.11-1.41-2.43-2.43-3.14a6.13,6.13,0,0,0-5.88-.83c-.45.17-.77.39-.26.89.69.67,1.34,1.39,2,2.08A5.2,5.2,0,0,0,16.78,61.37Zm23.29-3.66-.15-.31a10,10,0,0,0-2.56-.55,6.41,6.41,0,0,0-5.92,4.09c-.07.17.08.61.21.65a8.6,8.6,0,0,0,2.11.43,4.87,4.87,0,0,0,3.63-1.56C38.3,59.56,39.18,58.62,40.07,57.71Z" style="fill:#00040c"/></svg>