<svg xmlns="http://www.w3.org/2000/svg" viewBox="0 0 100 100"><title>Race Icon - Drow </title><path d="M38.59,0c-.44.67-.92,1.32-1.31,2a9.4,9.4,0,0,0-1.44,4.25c0,.9-.37,1.78-.4,2.68-.06,1.77,0,3.54,0,5.3a17.21,17.21,0,0,0,.45,3.66,9.2,9.2,0,0,0,2.46,4.56c1.14,1,2.4,1.91,3.52,2.94,1.27,1.16,2.45,2.43,3.69,3.64.43.43.9.83,1.49,1.36-.1-.62-.16-1.15-.27-1.66a2.24,2.24,0,0,1,1.93-2.27c-.07.19-.2.35-.19.5a1.4,1.4,0,0,0,.22.74c.2.23.43.56.87.3a1.17,1.17,0,0,1,.7-.08c1.2.13,1.5-.19,1.22-1.32,0,0,0-.08.06-.25a5.15,5.15,0,0,1,.81.44c.29.24.51.57.8.82a1,1,0,0,1,.29,1.15c-.13.51-.18,1-.26,1.57l.18.09a6.54,6.54,0,0,0,.71-.68A36.86,36.86,0,0,1,61,23.44a10.25,10.25,0,0,0,3.73-6.18,24,24,0,0,0,.19-5.8c0-.91.2-1.84.12-2.75-.25-2.93-.77-5.78-2.82-8.1A3.63,3.63,0,0,1,61.89,0H62c.25.19.52.38.77.58A8.5,8.5,0,0,1,65.23,3.9c.68,1.54,1.39,3.07,2.06,4.61a1.27,1.27,0,0,1,0,.64c-.06.54-.14,1.08-.2,1.62,0,.36,0,.72-.08,1.08-.13,1.35-.27,2.69-.4,4,0,.36,0,.72-.11,1.08-.11.73-.25,1.45-.39,2.17,0,.3-.11.59-.17.89s-.15.84-.26,1.25a1.63,1.63,0,0,1-.34.74c-.83.78-1.71,1.52-2.56,2.28a11.17,11.17,0,0,0-2.82,3.11,1.6,1.6,0,0,1-1.4,1,2.71,2.71,0,0,0-1,.36c-.91.5-1.93.9-2.13,2.13,0,.12-.15.23-.25.32-.31.31-.66.59-1,.91s-.44,1.07-1.18,1.05c-.06,0-.14.18-.18.29-.1.29-.19.59-.31,1a5.44,5.44,0,0,0,1.34,0,2.71,2.71,0,0,1,2,.18c.83.39,1.67.79,2.49,1.2a13.79,13.79,0,0,0,4.93,1.33,27,27,0,0,1,4.1.68c1.2.32,2.28,1,3.61.92A10.73,10.73,0,0,1,73.5,39a3.39,3.39,0,0,1,1.28.5,14.31,14.31,0,0,1,3.71,3.19,16.69,16.69,0,0,0,1.72,1.75v.61c-1.07-.79-2.14-1.58-3.19-2.39-.29-.22-.47-.64-.79-.78a9.43,9.43,0,0,0-2.68-1A17.85,17.85,0,0,1,69.43,40,20.44,20.44,0,0,0,64.94,39a2.53,2.53,0,0,0-1.34.55c-.28.16-.45.23-.75,0-1.31-.82-2.61-1.66-4-2.39a9.8,9.8,0,0,0-2.22-.73c-.64-.16-1.3-.24-2-.35a2.39,2.39,0,0,0-.83-.1,1,1,0,0,0-.69.42.8.8,0,0,0,.22.72,5.36,5.36,0,0,0,2.69,1.41c1.86.4,3.72.74,5.59,1.08a.77.77,0,0,1,.71.57,4.4,4.4,0,0,0,.91,1.18c.52.58,1,1.17,1.61,1.7,1,.94,2,1.85,3,2.75a12.92,12.92,0,0,0,1.6,1.27c1,.61,1,1.68,1.45,2.57.62,1.34,1.15,2.71,1.71,4.08a1.12,1.12,0,0,1-.25,1.27l-.24-.36a20.56,20.56,0,0,0-1.56-2.5c-1.23-1.51-2.6-2.91-3.85-4.4a9.28,9.28,0,0,1-1.39-2.09,6.41,6.41,0,0,0-3.09-2.95A19.27,19.27,0,0,0,60,41.68a3.11,3.11,0,0,0-1.39-.14.7.7,0,0,0-.42,1.25,26.68,26.68,0,0,0,2.45,2.31A10.89,10.89,0,0,1,63.15,48a40.93,40.93,0,0,0,2.42,3.44,18.47,18.47,0,0,1,2.08,4.2,27,27,0,0,0,1.6,2.75,10,10,0,0,0,1.4,2.24c1.13,1.1,1.21,2.08.67,3.58a25.13,25.13,0,0,0-1.3,9c0,5.11.14,10.23.23,15.34,0,.56,0,1-.62,1.3a.6.6,0,0,0-.21.49,3.47,3.47,0,0,0,.18,1,4.3,4.3,0,0,1-.51,3.87c-.93,1.46-1.83,2.94-2.75,4.41A3.84,3.84,0,0,1,66,100l-.17-.07A19.79,19.79,0,0,1,66.4,98a22.47,22.47,0,0,0,1.89-10.51c-.08-1.43-.43-2.85-.43-4.28,0-2.17.2-4.35.29-6.53.11-2.53.26-5,.25-7.58,0-1.6-.34-3.21-.42-4.82A7.34,7.34,0,0,1,68.27,62a2.2,2.2,0,0,0-.34-2.1c-1-1.26-1.93-2.54-3-3.71A21.45,21.45,0,0,1,61.37,51c-.43-.89-1-1.73-1.48-2.6a.52.52,0,0,0-.16-.17c-1-.39-1.48-1.36-2.28-2-.51-.4-.75-1.13-1.19-1.65a4.89,4.89,0,0,0-4.63-1.48,1.58,1.58,0,0,0-.81.57.89.89,0,0,1-1.52,0,2,2,0,0,0-1-.6,4.84,4.84,0,0,0-5.2,2.62,3.87,3.87,0,0,1-.62.73c-.41.43-.83.86-1.26,1.28-.13.12-.3.21-.43.33a4.85,4.85,0,0,0-.61.67c-.32.45-.61.93-.91,1.41a8.19,8.19,0,0,0-.64,1,20.22,20.22,0,0,1-4.13,5.62,10.64,10.64,0,0,0-2.7,3.67,1.52,1.52,0,0,0-.05.87,10.17,10.17,0,0,1,.19,3.89,66.16,66.16,0,0,0-.29,7.32c0,2.22.23,4.44.36,6.66a35.33,35.33,0,0,1-.31,7.19,19,19,0,0,0,.53,7.93c.43,1.58,1,3.1,1.52,4.66a6.5,6.5,0,0,1,.14.79l-.15.05c-.22-.32-.45-.64-.65-1q-1.23-1.93-2.45-3.89a4.78,4.78,0,0,1-.28-4.32c.19-.52.19-.9-.39-1.18a.9.9,0,0,1-.34-.68c.07-2.93.18-5.86.24-8.79s.1-5.71.08-8.56a27.73,27.73,0,0,0-1.09-7.17.48.48,0,0,0-.05-.17c-.9-1.36-.55-2.44.59-3.5a10.36,10.36,0,0,0,1.26-2,11.7,11.7,0,0,0,1-1.36c.67-1.39,1.23-2.83,1.92-4.21a15.3,15.3,0,0,1,1.34-2,27.36,27.36,0,0,0,1.76-2.44,11.88,11.88,0,0,1,3.65-4.19,9.47,9.47,0,0,0,1.65-1.58,1.08,1.08,0,0,0,.27-.88,1.13,1.13,0,0,0-.83-.55,3,3,0,0,0-1.46.24,36,36,0,0,0-3.38,1.89,4.69,4.69,0,0,0-1.23,1.28c-.53.76-.91,1.62-1.46,2.37-.42.57-1,1-1.51,1.53q-2,2.38-3.93,4.82a8.58,8.58,0,0,0-.71,1.32,1,1,0,0,1-.23-1.31c.68-1.61,1.45-3.19,2-4.83a4.2,4.2,0,0,1,1.55-2A40.16,40.16,0,0,0,34,44c1.14-1.07,2.25-2.17,3.37-3.26.05,0,.11-.08.12-.13.43-1.36,1.68-1.1,2.66-1.33,1.72-.42,3.47-.74,5.17-1.21a4.11,4.11,0,0,0,1.49-1,.87.87,0,0,0,.17-.8.73.73,0,0,0-.66-.34c-2,.43-4.14.4-5.93,1.67a30.32,30.32,0,0,1-3.12,1.83.7.7,0,0,1-.62,0,2.22,2.22,0,0,0-1.9-.51,12.13,12.13,0,0,0-4.86,1.16c-1,.55-2.17.3-3.22.59a10.74,10.74,0,0,0-2.75,1,31.21,31.21,0,0,0-2.8,2.24,12.7,12.7,0,0,1-1.25.81l-.12-.1c.14-.19.26-.39.41-.56.79-.89,1.54-1.82,2.37-2.65.55-.55,1.24-1,1.85-1.46,1.7-1.43,3.76-1.43,5.82-1.49a1.93,1.93,0,0,0,.87-.17c2-1.14,4.15-1.13,6.29-1.36A12.15,12.15,0,0,0,42,35.63c.75-.41,1.54-.76,2.33-1.12a3.57,3.57,0,0,1,2.59-.14,3.59,3.59,0,0,0,.75.05c-.08-.43-.14-.74-.21-1,0-.09-.07-.26-.12-.26-.78,0-.85-.82-1.28-1.22-.22-.21-.46-.39-.66-.62a2.27,2.27,0,0,1-.48-.72,3.37,3.37,0,0,0-2-1.85,13.14,13.14,0,0,0-1.71-.55.73.73,0,0,1-.39-.32c-1.18-2.18-3.22-3.58-4.85-5.34a3.18,3.18,0,0,0-.6-.41,1,1,0,0,1-.56-1.15.77.77,0,0,0,0-.54,5.85,5.85,0,0,1-.5-2.7c0-.18-.09-.35-.11-.53-.08-.55-.18-1.11-.23-1.66-.11-1.21-.2-2.41-.31-3.61,0-.44-.1-.88-.14-1.32a2.88,2.88,0,0,0,0-.66c-.51-1.47.23-2.67.79-3.91.32-.69.73-1.35,1-2a10.28,10.28,0,0,1,3.1-4Z" style="fill:#00040c"/><path d="M60.41,79.43c.07-.32.12-.48.14-.64a6.09,6.09,0,0,0,.22-1.67,3.84,3.84,0,0,0-.65-1.5c-.06-.1-.57-.07-.75.06a4.74,4.74,0,0,0-1.1,1.09,7.55,7.55,0,0,0-1.15,5.43,2,2,0,0,1-.66,1.86,16,16,0,0,0-3.11,4.33c-.24.42-.52.82-.75,1.25s-.93.48-1.41.68a4.43,4.43,0,0,1-3.3-.2,2.51,2.51,0,0,1-1-1c-.75-1.19-1.42-2.43-2.19-3.6a12.9,12.9,0,0,0-1.41-1.56,2.24,2.24,0,0,1-.55-2.07,7.38,7.38,0,0,0-1.32-5.5,2.75,2.75,0,0,0-.91-.77c-.51-.32-.56-.11-.91.32-.85,1.07-.29,2.14-.22,3.28a1.85,1.85,0,0,1-1.32-1.11,22.53,22.53,0,0,1-1.52-3.27C35.7,72.22,35,69.6,34.23,67c-.42-1.54-.72-3.11-1-4.67a1.32,1.32,0,0,1,.18-.88c.43,1,.84,2.06,1.31,3.07s.88,1.76,1.35,2.62c.2.36.58.65.93.3a1.38,1.38,0,0,0,.43-1.07A8.39,8.39,0,0,1,37.81,61a24.22,24.22,0,0,1,3.69-6.61A13.64,13.64,0,0,1,49.27,49a4.9,4.9,0,0,1,2.83.44,13.67,13.67,0,0,1,5.36,3.68,27.7,27.7,0,0,1,4.35,6.8,11.23,11.23,0,0,1,1.11,5.58,1.35,1.35,0,0,1-.21.61,1.06,1.06,0,0,0,.52,1.59.48.48,0,0,0,.42-.09,6.17,6.17,0,0,0,.82-1.1c.66-1.34,1.28-2.7,1.89-4.06a4.86,4.86,0,0,1,.33-.91,1.45,1.45,0,0,1,.16.58,23.85,23.85,0,0,1-.53,3c-1,3.43-2,6.85-3.07,10.26a8.52,8.52,0,0,1-.8,1.48,1.09,1.09,0,0,0-.18.31A3.39,3.39,0,0,1,60.41,79.43ZM45.21,71.1l1-.37a3.06,3.06,0,0,0-.41-.83,24.41,24.41,0,0,0-2.24-2.08,3.08,3.08,0,0,0-1.29-.43c-.33-.07-.51.07-.34.45s.37,1,.59,1.45A3.21,3.21,0,0,0,45.21,71.1Zm12.88-3.63c-1.43,0-3.93,1.93-4.37,3.39C56.05,71.6,57.81,70,58.09,67.47Z" style="fill:#00040c"/></svg>