<svg xmlns="http://www.w3.org/2000/svg" viewBox="0 0 100 100"><title>Race Icon - Yuan-Ti</title><path d="M81.15,46.11C73.72,47.8,69.43,53,67.83,60.32c-.18,1.35-2.8-1.14-2.59.56,1,1.25,1.85,3.5,1,4.92-1-.38-1.43-1.81-2.67-2-.31-.11-.7.1-.43.44,1.26,2.14.48,4.77-.54,6.85-.1.15-.26.17-.36,0-.8-1.61-1.5-3.56-3.23-4.37l-.09.1c1.17,2.57.47,6.8-2.19,8.19-1.21.57-1.37,2-1.75,3.15-.28.62-.21.91.36,1.27,2.52,2.18,6,1.35,8.31-.76,5.48-6.22,6.67-15.45,11.88-22.17C76.15,53.76,85.08,47.73,81.15,46.11Z" style="fill:#00040c"/><path d="M93.06,25.63c-.41-.39-.62-.47-1,0-4,4.27-5,.91-8.13,2C81.38,31.27,75.06,35,71.2,32.69A10,10,0,0,1,76,24.59c8.1-5.29,13,.78,17.94-11.9-1.28-3-6.57-.93-9.34-1.53-6.74-.93-10.67,5.35-14.11,10.15-1.2,1.16-2.37,5.05-4.43,3.62-.57-3,2.69-6.54,4.1-9.22,5.2-7,8.93-6.82,16.46-7.81C84,1.33,74.71,7.44,69.77,4.29c-3.09-1.08-5.49-5.94-9-3.71C57.38,3.58,54.3,4.26,50,3.71c-4.3.55-7.38-.13-10.72-3.13-3.56-2.23-6,2.63-9,3.71C25.29,7.44,16,1.33,13.41,7.9c7.53,1,11.26.83,16.46,7.81,1.41,2.68,4.67,6.21,4.1,9.22-2.06,1.43-3.23-2.46-4.43-3.62-3.44-4.8-7.37-11.08-14.11-10.15-2.77.6-8.06-1.5-9.34,1.53,5,12.68,9.84,6.61,17.94,11.9a10,10,0,0,1,4.77,8.1C24.94,35,18.62,31.27,16.08,27.56c-3.08-1.06-4.15,2.3-8.13-2-.39-.43-.6-.35-1,0C3.2,31.63,11,37.74,15.4,41c9.85,3.9,12.14,3.06,17.71,13.25,1.33,1.34,2.39,3.89,4.32,4.11.48-1.31-.73-3.07-.2-4.6.3-.63.29-3.88,1.49-2.73.47,1,.09,3.32,1.68,3.05-.67-1.57,1.34-4.38,3-3.34.74.42,1.39,2.31,2.27,1.55a8.56,8.56,0,0,1,8.64,0c.88.76,1.53-1.13,2.27-1.55,1.67-1,3.68,1.77,3,3.34,1.59.27,1.21-2.08,1.68-3.05,1.2-1.15,1.19,2.1,1.49,2.73.53,1.53-.68,3.29-.2,4.6,1.93-.22,3-2.77,4.32-4.11C72.46,44,74.75,44.88,84.6,41,89,37.74,96.8,31.63,93.06,25.63ZM40.69,41c-.49-1,.59-1.16,1.29-1.25,2.2-.27,2.1,2.71,2.05,4.21h0C43.59,46.16,41,41.84,40.69,41Zm18.62,0c-.35.89-2.9,5.21-3.38,3h0c0-1.5-.15-4.48,2.05-4.21C58.72,39.79,59.8,40,59.31,41Z" style="fill:#00040c"/><path d="M57.38,62.84C59.62,59.35,53,55.57,50,56.09c-3-.52-9.62,3.26-7.38,6.75,4.5,4.09,3.22,10.17,3.9,15.65.84,6.06-1.74,17.05,2,21.51a24.71,24.71,0,0,1,1.23-10.46.57.57,0,0,1,.29-.35.57.57,0,0,1,.29.35A24.71,24.71,0,0,1,51.52,100c3.7-4.46,1.12-15.45,2-21.51C54.16,73,52.88,66.93,57.38,62.84Z" style="fill:#00040c"/><path d="M18.85,46.11C26.28,47.8,30.57,53,32.17,60.32c.18,1.35,2.8-1.14,2.59.56-1,1.25-1.85,3.5-1,4.92,1-.38,1.43-1.81,2.67-2,.31-.11.7.1.43.44-1.26,2.14-.48,4.77.54,6.85.1.15.26.17.36,0,.8-1.61,1.5-3.56,3.23-4.37l.09.1c-1.17,2.57-.47,6.8,2.19,8.19,1.21.57,1.37,2,1.75,3.15.28.62.21.91-.36,1.27-2.52,2.18-6,1.35-8.31-.76-5.48-6.22-6.67-15.45-11.88-22.17C23.85,53.76,14.92,47.73,18.85,46.11Z" style="fill:#00040c"/></svg>