<svg xmlns="http://www.w3.org/2000/svg" viewBox="0 0 100 100"><title>Race Icon - Fire Genasi</title><path d="M50.08-.57c.13.93.23,1.86.4,2.77.66,3.6,1.35,7.19,2,10.79.42,2.34.92,4.68,1.16,7a15.91,15.91,0,0,1-2.76,10.51c-1.65,2.54-3.15,5.17-4.74,7.75s-3.23,5-4.73,7.61S38.55,51,37.26,53.54a17.21,17.21,0,0,0-1.48,6.72c-.11,1.81-.11,3.63-.16,5.45a1.31,1.31,0,0,1-.11.34l-.39-.29c-.69-.45-1.4-.11-1.36.71a28.93,28.93,0,0,0,.35,3.47c.3,1.67.71,3.33,1.07,5a2.85,2.85,0,0,0,.12.31c.37.78.52.8,1,.14a.86.86,0,0,1,.14-.18l.23-.09c.61,1.27,1.31,2.52,1.83,3.84.7,1.81,1.28,3.67,1.9,5.52A7.37,7.37,0,0,0,44.62,89c1.43.65,2.87,1.27,4.29,1.93a2.26,2.26,0,0,0,2,0c1.76-.78,3.53-1.51,5.26-2.34A6.67,6.67,0,0,0,59.69,84a41.51,41.51,0,0,1,2.59-7c.26-.56.59-1.08.89-1.62.19-.35.34-.25.51,0,.37.58.77.57,1-.1.44-1.5.82-3,1.12-4.58.23-1.13.3-2.3.45-3.46a2.4,2.4,0,0,0,0-.28c0-.47.16-1.11-.36-1.3s-.93.12-1.5.21c.05-.19.05-.56.23-.76a13.69,13.69,0,0,0,2.78-5.51A63.06,63.06,0,0,0,69.87,47a19.9,19.9,0,0,1,.39-2.58c.24.5.49,1,.71,1.49.74,1.74,1.49,3.47,2.19,5.23A43.25,43.25,0,0,1,75.58,59a57.51,57.51,0,0,1,1.14,10.62,25.18,25.18,0,0,1-.92,7.63,8.28,8.28,0,0,1-2.38,4.07c-.51.43-1.17.67-1.69,1.09-1.08.88-2.16,1.78-3.16,2.75s-1.88,2-2.77,3c-1.09,1.24-2.1,2.53-3.22,3.74a9,9,0,0,1-1.91,1.55c-1.87,1.13-3.78,2.2-5.68,3.28-1.48.84-3,1.64-4.46,2.48a1.07,1.07,0,0,1-1.19,0L39,93.24a13.55,13.55,0,0,1-3-3c-1.7-1.9-3.45-3.76-5.15-5.67a20.86,20.86,0,0,0-4.07-3.12,5.81,5.81,0,0,1-1.83-2.38,19.2,19.2,0,0,1-1.58-7.71,53.44,53.44,0,0,1,1.35-13.52,39.57,39.57,0,0,1,1.81-5.72c1.05-2.7,2.2-5.37,3.38-8,.7-1.59,1.56-3.1,2.31-4.67a1.36,1.36,0,0,0,.07-.93,26.57,26.57,0,0,1-1.35-7.9,28.56,28.56,0,0,1,1.93-10.9,34.19,34.19,0,0,1,3.64-6.93c.28-.41.6-.79,1-1.28a3.94,3.94,0,0,1,.16.64,18.77,18.77,0,0,0,2.79,8.46,15.36,15.36,0,0,1,.85,1.77,2.15,2.15,0,0,0,.31-.35A66.38,66.38,0,0,0,47.25,9.31c1-3.18,1.7-6.44,2.53-9.67,0-.07,0-.14.07-.21Z" style="fill:#00040c"/><path d="M58.09,21.4l.67,1.2c1.15,2.12,2.32,4.23,3.44,6.36a7.1,7.1,0,0,1,.62,1.8,33.2,33.2,0,0,0,1.69,5.58,6.61,6.61,0,0,1,.33,2.14,46.94,46.94,0,0,1-.38,9.77,10.48,10.48,0,0,1-1.52,4.48c-.23.35-.35.43-.62,0q-1.87-2.93-3.81-5.81c-.7-1.06-1.52-2-2.19-3.12a8.34,8.34,0,0,1-1-5.93,60.31,60.31,0,0,1,1.6-6A24.88,24.88,0,0,0,58.27,23,14.59,14.59,0,0,0,58,21.45Z" style="fill:#00040c"/><path d="M39.35,69.23a13.47,13.47,0,0,1,2.19-.12,8.65,8.65,0,0,1,3.77,1.32c.61.39.64.62.08,1.11a3,3,0,0,1-3.26.43,5.88,5.88,0,0,1-2.81-2.5Z" style="fill:#00040c"/><path d="M56.24,72.25a2.58,2.58,0,0,1-1.84-.9c-.31-.34-.27-.62.1-.83a8.47,8.47,0,0,1,5.56-1.34c.52.08.67.23.4.57C59.42,71.11,58.25,72.26,56.24,72.25Z" style="fill:#00040c"/></svg>