<svg xmlns="http://www.w3.org/2000/svg" viewBox="0 0 100 100"><title>Race Icon - Tiefling</title><path d="M11.28,17.45a17.74,17.74,0,0,1-.19-2.84,9.16,9.16,0,0,1,2.83-5.85,18.21,18.21,0,0,1,7.77-4.64,13.09,13.09,0,0,1,8.89.58,11.49,11.49,0,0,1,1.65,1,4.89,4.89,0,0,0,5.15.27A3.52,3.52,0,0,0,38.6,4.68a9.24,9.24,0,0,1,3.28-3.06,3,3,0,0,1,1.58-.39A8.13,8.13,0,0,0,46.83.62a8.63,8.63,0,0,1,6.71.12A5.81,5.81,0,0,0,56,1.23,5.13,5.13,0,0,1,60,2.92a8.52,8.52,0,0,1,1.56,1.92,3.59,3.59,0,0,0,2.68,1.73,5.42,5.42,0,0,0,3.91-.88,11.14,11.14,0,0,1,6.73-1.82,16.54,16.54,0,0,1,12,6,8.33,8.33,0,0,1,2,7.51c0,.12-.08.23-.14.42-.46-.62-.85-1.18-1.28-1.71-2.41-3-5.68-4-9.37-3.85a17,17,0,0,0-9.08,3.29A15.65,15.65,0,0,0,65.25,19a4.87,4.87,0,0,0-.69,4.16c.29-.18.54-.36.8-.51.57-.34.93-.21,1,.45a13.49,13.49,0,0,1-.09,2.62c-.36,2.34-.79,4.67-1.22,7-.14.77-.56,1-1.23.58-.41-.23-.65-.07-.82.29a39.26,39.26,0,0,0-3.7,9.9,5.21,5.21,0,0,1-2,2.95,18.53,18.53,0,0,1-6.63,3.34,4.3,4.3,0,0,1-3-.5A17.87,17.87,0,0,1,43,46.73a6.29,6.29,0,0,1-2.69-4.23,22.59,22.59,0,0,0-2-5.86c-.44-1-.91-2.06-1.38-3.08-.21-.43-.39-.88-1-.34-.38.34-.92.07-1-.49A25.42,25.42,0,0,1,34.39,30q-.42-3.36-.73-6.74a2.75,2.75,0,0,1,.25-.93c.31.09.63.17.93.29a3.88,3.88,0,0,1,.59.39c.14-1.27.45-2.41-.28-3.56a15.35,15.35,0,0,0-5.6-5.2A16.34,16.34,0,0,0,19.87,12a9.62,9.62,0,0,0-6.58,3.13ZM59.53,26a9.42,9.42,0,0,0-5.21,2.07c-.3.23-.28.47,0,.63.81.57,1.62,1.29,2.69,1.11A6.33,6.33,0,0,0,61.06,27c.25-.34.18-.65-.29-.76S60,26.08,59.53,26Zm-19,0a3.21,3.21,0,0,0-.76,0,9.08,9.08,0,0,0-1,.39,3.44,3.44,0,0,0,.48,1A15.2,15.2,0,0,0,41.09,29c1.67,1.16,2.77,1,4.35-.14.48-.34.47-.61,0-.94A8.71,8.71,0,0,0,40.49,26Z" style="fill:#00040c"/><path d="M25,79.58c.23-.74.53-1.58.75-2.43.93-3.68,2-7.34,2.68-11.07a93.35,93.35,0,0,0,1-10.06c.32-4.64.53-9.3.75-14,.2-4.29.39-8.58.53-12.87.09-2.65.07-5.3.1-7.95,0-.57.42-.91,1.36-1.09v.62c.08,2.78.11,5.56.26,8.33a29.07,29.07,0,0,0,.59,3c.32,1.83.57,3.66.91,5.49a5.78,5.78,0,0,0,.69,1.9,2.66,2.66,0,0,0,1.23.88c.33.13.57.19.73.57a57.3,57.3,0,0,1,3,10.18,17.69,17.69,0,0,0,1.28,3.57A4.09,4.09,0,0,0,42,56a1.33,1.33,0,0,1,.59,1.11c.06,4.72.07,9.45.24,14.17.19,5.21.56,10.41.79,15.62.18,4,.28,7.94.4,11.91a10.38,10.38,0,0,1-.09,1.11l-.17,0c-.25-.63-.49-1.27-.76-1.9a29.71,29.71,0,0,0-6.12-9.25c-1.8-1.81-3.54-3.7-5.39-5.45a27.26,27.26,0,0,0-3.88-3.07A8.91,8.91,0,0,0,25,79.58Z" style="fill:#00040c"/><path d="M55.5,100c0-.16,0-.32,0-.48.2-4.8.39-9.6.61-14.4.26-5.27.6-10.54.81-15.81.16-4.08.16-8.17.27-12.25a1.23,1.23,0,0,1,.47-.87,3.78,3.78,0,0,0,1.65-2c.62-1.92,1-3.91,1.64-5.84.77-2.48,1.63-4.93,2.47-7.39a.66.66,0,0,1,.45-.34,1.8,1.8,0,0,0,1.63-1.32,11.32,11.32,0,0,0,.64-2.53,28.11,28.11,0,0,1,1-5.14,32.74,32.74,0,0,0,.74-8.15c0-1,0-2.07,0-3.12,1,.17,1.28.54,1.3,1.5.09,4.85.19,9.7.33,14.55.11,3.76.27,7.52.43,11.27s.34,7.69.51,11.53a60.59,60.59,0,0,0,1.68,11.46c.67,2.8,1.52,5.55,2.28,8.33.08.28.14.57.22.94a1.59,1.59,0,0,1-.46.08,3.85,3.85,0,0,0-2.65.73,23,23,0,0,0-4.52,3.81c-2,2.07-4.1,4.13-6,6.31A25,25,0,0,0,56.7,97.5L55.62,100Z" style="fill:#00040c"/></svg>