<svg xmlns="http://www.w3.org/2000/svg" viewBox="0 0 100 100"><title>Race Icon - High Elf</title><path d="M46.07,66.14c.51.46.94.91,1.43,1.3a3.49,3.49,0,0,0,3.18,1A5,5,0,0,0,53.2,67c1.28-1.47,2.55-3,3.78-4.47a3.46,3.46,0,0,0,.6-1.39c.3-1.3.55-2.62.78-3.93.18-1.06,1-1.54,1.72-2.15,1.12,1.1.31,2.41.47,3.6l.16.08a8.86,8.86,0,0,0,.9-.94A20.21,20.21,0,0,0,64.07,53a51.43,51.43,0,0,0,2.74-10.77A1.17,1.17,0,0,0,66.49,41a19.49,19.49,0,0,1-3.09,5.8,1,1,0,0,1-.61-1.11,12.86,12.86,0,0,0-1.47-7.83,19.67,19.67,0,0,0-3.71-5.56,11.62,11.62,0,0,0-7-3.77,5.56,5.56,0,0,0-2.61.38,29.48,29.48,0,0,0-3.56,1.87.49.49,0,0,1-.68-.05c-1.49-1.23-2.94-2.53-4.53-3.63a22.35,22.35,0,0,0-7.07-3.23c-.95-.25-1.9-.5-2.87-.83a31.39,31.39,0,0,1,22.47-6A33,33,0,0,1,60,80.59a31.44,31.44,0,0,1-19.89,1.19c-5-1.26-10-4.2-11-5.34A27.45,27.45,0,0,0,46.07,66.14Z" style="fill:#00040c"/><path d="M100,50.9c-2,1-4,1.73-6.2,1.15a4.39,4.39,0,0,1-1.4-.74,4.07,4.07,0,0,0-3-.71c-.64.1-1.28.22-1.92.34a2.32,2.32,0,0,1-2.22-.73,1.07,1.07,0,0,1,0-1.62,10.93,10.93,0,0,1,2.22-1.23A5.77,5.77,0,0,1,91.68,47a6.22,6.22,0,0,1,2.49,1.85,5.44,5.44,0,0,0,4.48,2.07c.43,0,.87-.14,1.3-.21Z" style="fill:#00040c"/><path d="M84.54,86a11.5,11.5,0,0,1-1.44-.46,8.09,8.09,0,0,1-3.49-2.65,2.83,2.83,0,0,1-.5-1.14A5.64,5.64,0,0,0,76,77.34a2.44,2.44,0,0,1-1.42-2.06c0-1,.56-1.59,1.49-1.38A9.37,9.37,0,0,1,80.38,76a4.78,4.78,0,0,1,1.47,3.71A23.92,23.92,0,0,0,82,82.43a4.39,4.39,0,0,0,2.11,3l.55.37Z" style="fill:#00040c"/><path d="M86.2,15.27a19.82,19.82,0,0,1-.9,2.12A12,12,0,0,1,84,19.31a4.06,4.06,0,0,1-2.61,1.5,4.16,4.16,0,0,0-3.12,2A17.87,17.87,0,0,1,77,24.4a2,2,0,0,1-1.59.79c-1,0-1.47-.43-1.28-1.49A8.33,8.33,0,0,1,76.71,19a3.94,3.94,0,0,1,2.54-1c1-.06,2,0,3.07-.12a4.57,4.57,0,0,0,3.37-2.2c.1-.15.22-.3.33-.45Z" style="fill:#00040c"/><path d="M51.11,99.83c0-.2.06-.4.11-.6a4.5,4.5,0,0,0-1.29-4.59c-.56-.55-1-1.18-1.56-1.78a4.21,4.21,0,0,1-.86-3.81,19,19,0,0,1,1.16-3.51A1.28,1.28,0,0,1,51,85.45a3.22,3.22,0,0,1,.24,2.64c-.08.45-.19.9-.25,1.35a3.73,3.73,0,0,0,.76,2.85,4.43,4.43,0,0,1,.92,3.25,10.67,10.67,0,0,1-1.4,4.33Z" style="fill:#00040c"/><path d="M51.29-.13a9.74,9.74,0,0,1,1.52,4.39,4,4,0,0,1-.79,3,4.57,4.57,0,0,0-.79,4.06,15.27,15.27,0,0,1,.25,1.92,1.85,1.85,0,0,1-.79,1.51,1.17,1.17,0,0,1-1.8-.46,21.66,21.66,0,0,1-1.24-3.58,4.11,4.11,0,0,1,.56-3.45,12.2,12.2,0,0,1,1.58-1.79A5,5,0,0,0,51.3.14,1.22,1.22,0,0,1,51.29-.13Z" style="fill:#00040c"/><path d="M55,50.09c-.39-.09-.82-.17-1.24-.3s-.39-.35-.07-.57c.77-.53,1.54-1.07,2.35-1.55a4.29,4.29,0,0,1,1.31-.48,2.29,2.29,0,0,1,.8.14,3.33,3.33,0,0,1-.26.77A3.43,3.43,0,0,1,55.66,50Z" style="fill:#00040c"/><path d="M45.17,50a3.11,3.11,0,0,1-2.52-1.48,1.12,1.12,0,0,1-.19-.29c-.12-.33-.23-.68-.35-1,.37,0,.81-.16,1.1,0,1,.48,1.91,1.07,2.86,1.62a.1.1,0,0,1,0,0l.63.65c-.34.15-.67.31-1,.44A1.73,1.73,0,0,1,45.17,50Z" style="fill:#00040c"/></svg>